<mxfile host="65bd71144e">
    <diagram id="I87e9ysphhptvvuEUAK5" name="slides-to-video">
        <mxGraphModel dx="1300" dy="721" grid="1" gridSize="4" guides="1" tooltips="1" connect="1" arrows="1" fold="1" page="1" pageScale="1" pageWidth="850" pageHeight="1100" math="0" shadow="0">
            <root>
                <mxCell id="0"/>
                <mxCell id="1" parent="0"/>
                <mxCell id="3" value="&lt;div&gt;&lt;font style=&quot;color: rgb(51, 51, 51);&quot;&gt;&lt;br&gt;&lt;/font&gt;&lt;/div&gt;&lt;font style=&quot;color: rgb(51, 51, 51);&quot;&gt;&lt;div&gt;&lt;font style=&quot;color: rgb(51, 51, 51);&quot;&gt;&lt;br&gt;&lt;/font&gt;&lt;/div&gt;&lt;div&gt;&lt;font style=&quot;color: rgb(51, 51, 51);&quot;&gt;&lt;br&gt;&lt;/font&gt;&lt;/div&gt;Load&lt;/font&gt;&lt;div&gt;&lt;font style=&quot;color: rgb(51, 51, 51);&quot;&gt;Presentation&lt;/font&gt;&lt;/div&gt;" style="rounded=1;whiteSpace=wrap;html=1;strokeColor=#999999;" vertex="1" parent="1">
                    <mxGeometry x="80" y="112" width="96" height="96" as="geometry"/>
                </mxCell>
                <mxCell id="5" value="&lt;div&gt;&lt;font color=&quot;#333333&quot;&gt;&lt;br&gt;&lt;/font&gt;&lt;/div&gt;&lt;font color=&quot;#333333&quot;&gt;&lt;div&gt;&lt;font color=&quot;#333333&quot;&gt;&lt;br&gt;&lt;/font&gt;&lt;/div&gt;&lt;div&gt;&lt;font color=&quot;#333333&quot;&gt;&lt;br&gt;&lt;/font&gt;&lt;/div&gt;&lt;div&gt;&lt;font color=&quot;#333333&quot;&gt;&lt;br&gt;&lt;/font&gt;&lt;/div&gt;Create Images from Slides&lt;/font&gt;" style="rounded=1;whiteSpace=wrap;html=1;strokeColor=#999999;" vertex="1" parent="1">
                    <mxGeometry x="224" y="112" width="96" height="96" as="geometry"/>
                </mxCell>
                <mxCell id="6" value="&lt;div&gt;&lt;font color=&quot;#333333&quot;&gt;&lt;br&gt;&lt;/font&gt;&lt;/div&gt;&lt;font color=&quot;#333333&quot;&gt;&lt;div&gt;&lt;font color=&quot;#333333&quot;&gt;&lt;br&gt;&lt;/font&gt;&lt;/div&gt;&lt;div&gt;&lt;font color=&quot;#333333&quot;&gt;&lt;br&gt;&lt;/font&gt;&lt;/div&gt;&lt;div&gt;&lt;font color=&quot;#333333&quot;&gt;&lt;br&gt;&lt;/font&gt;&lt;/div&gt;Narrate&amp;nbsp;&lt;/font&gt;&lt;div&gt;&lt;font color=&quot;#333333&quot;&gt;Speaker Notes&lt;/font&gt;&lt;/div&gt;" style="rounded=1;whiteSpace=wrap;html=1;strokeColor=#999999;" vertex="1" parent="1">
                    <mxGeometry x="368" y="112" width="96" height="96" as="geometry"/>
                </mxCell>
                <mxCell id="7" value="&lt;div&gt;&lt;font style=&quot;color: rgb(77, 77, 77);&quot;&gt;&lt;br&gt;&lt;/font&gt;&lt;/div&gt;&lt;font style=&quot;color: rgb(77, 77, 77);&quot;&gt;&lt;div&gt;&lt;font style=&quot;color: rgb(77, 77, 77);&quot;&gt;&lt;br&gt;&lt;/font&gt;&lt;/div&gt;&lt;div&gt;&lt;font style=&quot;color: rgb(77, 77, 77);&quot;&gt;&lt;br&gt;&lt;/font&gt;&lt;/div&gt;&lt;div&gt;&lt;font style=&quot;color: rgb(77, 77, 77);&quot;&gt;&lt;br&gt;&lt;/font&gt;&lt;/div&gt;Record&amp;nbsp;&lt;/font&gt;&lt;div&gt;&lt;font style=&quot;color: rgb(77, 77, 77);&quot;&gt;Video&lt;/font&gt;&lt;/div&gt;" style="rounded=1;whiteSpace=wrap;html=1;strokeColor=#999999;" vertex="1" parent="1">
                    <mxGeometry x="512" y="112" width="96" height="96" as="geometry"/>
                </mxCell>
                <mxCell id="8" value="&lt;div&gt;&lt;font style=&quot;color: rgb(77, 77, 77);&quot;&gt;&lt;br&gt;&lt;/font&gt;&lt;/div&gt;&lt;font style=&quot;color: rgb(77, 77, 77);&quot;&gt;&lt;div&gt;&lt;font style=&quot;color: rgb(77, 77, 77);&quot;&gt;&lt;br&gt;&lt;/font&gt;&lt;/div&gt;&lt;div&gt;&lt;font style=&quot;color: rgb(77, 77, 77);&quot;&gt;&lt;br&gt;&lt;/font&gt;&lt;/div&gt;&lt;div&gt;&lt;font style=&quot;color: rgb(77, 77, 77);&quot;&gt;&lt;br&gt;&lt;/font&gt;&lt;/div&gt;Export&amp;nbsp;&lt;/font&gt;&lt;div&gt;&lt;font style=&quot;color: rgb(77, 77, 77);&quot;&gt;V&lt;span style=&quot;background-color: transparent;&quot;&gt;ideo&lt;/span&gt;&lt;/font&gt;&lt;/div&gt;" style="rounded=1;whiteSpace=wrap;html=1;strokeColor=#990000;" vertex="1" parent="1">
                    <mxGeometry x="656" y="112" width="96" height="96" as="geometry"/>
                </mxCell>
                <mxCell id="9" value="" style="endArrow=classic;html=1;exitX=1;exitY=0.5;exitDx=0;exitDy=0;entryX=0;entryY=0.5;entryDx=0;entryDy=0;endFill=0;strokeColor=#808080;" edge="1" parent="1" source="3" target="5">
                    <mxGeometry width="50" height="50" relative="1" as="geometry">
                        <mxPoint x="96" y="274" as="sourcePoint"/>
                        <mxPoint x="146" y="224" as="targetPoint"/>
                    </mxGeometry>
                </mxCell>
                <mxCell id="10" value="" style="endArrow=classic;html=1;exitX=1;exitY=0.5;exitDx=0;exitDy=0;entryX=0;entryY=0.5;entryDx=0;entryDy=0;endFill=0;strokeColor=#808080;" edge="1" parent="1" source="5" target="6">
                    <mxGeometry width="50" height="50" relative="1" as="geometry">
                        <mxPoint x="180" y="164" as="sourcePoint"/>
                        <mxPoint x="228" y="164" as="targetPoint"/>
                    </mxGeometry>
                </mxCell>
                <mxCell id="11" value="" style="endArrow=classic;html=1;exitX=1;exitY=0.5;exitDx=0;exitDy=0;entryX=0;entryY=0.5;entryDx=0;entryDy=0;endFill=0;strokeColor=#808080;" edge="1" parent="1" source="6" target="7">
                    <mxGeometry width="50" height="50" relative="1" as="geometry">
                        <mxPoint x="184" y="168" as="sourcePoint"/>
                        <mxPoint x="232" y="168" as="targetPoint"/>
                    </mxGeometry>
                </mxCell>
                <mxCell id="12" value="" style="endArrow=classic;html=1;exitX=1;exitY=0.5;exitDx=0;exitDy=0;endFill=0;strokeColor=#990000;" edge="1" parent="1" source="7" target="8">
                    <mxGeometry width="50" height="50" relative="1" as="geometry">
                        <mxPoint x="188" y="172" as="sourcePoint"/>
                        <mxPoint x="236" y="172" as="targetPoint"/>
                    </mxGeometry>
                </mxCell>
                <mxCell id="13" value="" style="shape=image;verticalLabelPosition=bottom;labelBackgroundColor=default;verticalAlign=top;aspect=fixed;imageAspect=0;image=https://cdn-icons-png.flaticon.com/512/28/28821.png;" vertex="1" parent="1">
                    <mxGeometry x="116" y="124" width="24" height="24" as="geometry"/>
                </mxCell>
                <mxCell id="14" value="" style="shape=image;verticalLabelPosition=bottom;labelBackgroundColor=default;verticalAlign=top;aspect=fixed;imageAspect=0;image=data:image/png,iVBORw0KGgoAAAANSUhEUgAAAOEAAADhCAMAAAAJbSJIAAAAilBMVEX///8AAADt7e319fXu7u729vbs7Ozr6+vx8fH6+vpjY2M1NTUmJibNzc1wcHBYWFjc3NwjIyPk5OStra3V1dXBwcG5ubmVlZUMDAweHh4rKyumpqbh4eEaGhp6enoPDw9LS0sxMTGMjIxBQUHGxsaBgYGgoKBqamp0dHSzs7OFhYU+Pj5cXFxTU1MLRcX6AAAR3UlEQVR4nO2dC3ujKhCGVUAhtd3aJI2mce0lTdvd7v//e4eLGlRQVHDTnuXZk85Rg3zx8jrDCB6EMEAeLeE3Nbx/Cr+84QW0AGZE39TwEEIAlB9AfHwrQxxHRPVGzADfzwg8YUEYCqnfzoD/F4VRFIrDGoXfzQg9+l8kbj7f1GjwEF4AvhwSP7qMBjklPoQXAGhHxBd4BOiLox+A7ipxHGtEWkc/govyHQadVYL4NUAAtE0kjJekHw46q6BrhXBJhap9VcSvEWkZ/SjCC/IdhkFnlVPi08tiOb5HpQFhH/HtGhBivCD9xL7oVbGcj093tuBDEhYwN/XxRctmopbd2hbjOz10RL1KIr5k2EA/WtKRpw8rhH0MEt8Wqesb90Kgh6LNWOvjO4EvdFVzB7mwUqj3gJ3sPlpIIagV9vr4XXrOQj8Kl3PkEVzcxw8i93yvjCiqnFszH9/cwPVNqmsQAnSrzAysIVvXiKq4RNQB/Vzinz5/qMrn6pOuWKlXGhT27R83t555e7SgN43qa9C/8tUl89OM/kk0q03LVtue9kMFDvDQw4ma+BL6FavIvaZlSe77eZzOEZemQqKC3QqD/yNgOKo/0klH75rmcXHZvCNYSkQmxBe0wCWZ+qL6I0GEbjStY8ewyOJZCv20YJ/3wKA94hj0hxEmEV95DNMkztI4oZ9zr0JxFO8HmgGobyZiFtgoqj8KtUB1DLPUL/KZ2hoSj/3NoKAvz1LKX+vE/ylakr/f1OWd2e8/b+YW+SiCvmaUSBgZ1Tc1SoVXnkRqMpXvTaNxoiI960rfWg/6ecSXFEoxCxveOmqcqJyLNqP6xuiXFLIlzZ9zlrdO/K5EFejxIOhNia/0+r33SqFgalUseOvYb0vsor9qjaH7Ly6CcfH5ihZXpHICK/jO9dZh2L6jKtAvQvfM3zWpeRbxqcImduY7tZLC+o7a2bjHo7dM/Fphv5c9VSHVyCV2Nq6PobnCicS/QuWS+oSZ67YHkd+VOIB+J/348r3UrttOfEXpoj9oh+4dEt9y9JooH2oV6B90fO0T35LxR6VQhX5zhYbEbxgt4tuMzz8rFZp7/dOJLxuM+GmRVsS3GZ8n12qFVOLUgD9XOZLL6KaI9/t98kLsB+qJ0n9OM/9I4KQKpxH/Z56nRZY8EvuBbbxVCCz2WeFvyaQKJxGfiOuweCTYQaD+RSGQu9ZDXr894geEPdNQGFfH0G6g/q6jMI7F/iahfzLxWdDpcdy3DA3QPk/pOUo/90wiKJ24MRVO5GERJ0JhnwNuZnS+jj6aCrM4Yx8FO2kmJAZMVJiwvaoVwso9NTMUu0Cboqkw9tOYKsyzaIrCKcR/pQoLP3tsrYKBmmV9ZQcUuyAN8FOFGbsWi7hS6Jr4yHvNsySPk0cPNTrrJQ/duJyIehfB+rHuHUj9PEnyLE6SkCxCfEh+5nFOf1h6WbTiABMUavYFsQcO1/esbI/HE73bxHGS4UWIT2lBFWZcYXubSQp79kXo9Yrp36PPdpgkeBHiC4UJPWncK6wMpjChv+lkhaN9/DTZx3lxhdrh9EkKDXa69eN9khc+/Os+/h0tm1tajI1DYLBTXHVYHsLxjxA2PWBYs44YG0YvCNQK7yYkyl2aj+9AoSnxZdQ2fXwraX4KA9Y7lRS68/HlKHorqg+AYYB9HKnPO0SkehiP0Ph6uEqjqD49WUpatKP6wEFCPmx49JVC6JL4gCXEiiWqqL51oxFEPyt0SXxc77UT1a+3Ya90iLNilkGqllXvDsxWaJQgR88cXVS/3uZ5t6P/RJluPF9TnyqUa5bOUjfEDwPYQK2a+FE4wXtSlg9eIQyWI36EMTTgIYR2BKYfrWa4Jz6s0seWUVisrSo0IT5z1/TEP/v4NhQWcXWWnmvWEx9aID5qwldJ/Bk+fldhQRWSZjOcEh9hfeZeTfx649X88va2+tzSe2mjZpfEB4q8OD3xUZUfzA76BKP8Omk3wynxqaPTUaglfjArRZ89Nqm/3quwv0PfhPid0L2W+HMN2N3XMPHRLOJH6ij6QD/+tFz9KNRG7J0RX+uAD3rAQF1hv4GRrj3OiB/oMv+GFJqnEcgy9N9yR3zd63W9/fhje2aqPErcWmJE/Bk+PmLRdoCUhNURHwBCC2ZfHGsgauBqCW4HDQyID8YSH4W48uhHEB9kSZLsaWHxaWEkRkb89LR/udo/XV2xBIH8o/2Y4YL4uOf1Oj3xzw9fo166SOMsyXz6XyoShtZgAeJr4dtLfKnVjS7AgbIvWB/a+f/tK1Qm0en76PXEl5ttLjHl4pJzwtcajyD+APqVxIdDkXYN8cOm92Qucd86p9etndomPhx8IcyxB+zb9YAVCjEc6C7XKQTXtGyPx+2RGfTP8dhYojKuj9cbtrG86s6qQgXxcZe5ZsQvf6AxPTNAtcol8RFoQ3wU8RVPDgMV8oIG6hnj47fR3yI+wqpX2s2Jr+j0h4MVqt+jd0R8oPB3xxBfaQz6xP0vn9klPjAaKaDXxx/lgJtuY5f4YWeJYx9/wEkfH9VH0RDxI+u5+jPf0LdN/P6h6WCHh0ZO4BzXEYIuD83BaNiPDzirPEQQM0qFv89L+g1EhrfpM860aK2y148PTgbPWkuXRzCUBmAW1Wcf2gx68zLrJX1NufHs9eOv5zfHgcQnYNB4w358CwodSLxCBo037Me3odB+GaFwEKMXqhAYNN6sHx8+/G0xynJlrx8fX6pCa8T/2gpNiH+xCq1l7pFLVXhRxHdQri6M+PbLP+L/ReJbeoC7ZOLbkXjRxLci8bKJP6bzTVe+PvGHDvQ44vfG1YeJf3pYr9cfV6Jhp/XD6eHhRJecdrvn17eXvLElX/WwfhDGmm/cupU9PW8PjNbwsH1+6lG4IPH5G2beo1BIPJbmwJfwtws9cv143lJeVRueXNnjNULlWGyQtlH6ckvhksQXFZUKgaKe+iwIqgi3PMJ9II9p8uGRVhRcs/tFiS8Sz3sU1hLPCgOlwviuJ6o/WeF84ovX9GqFde8APRplPaQcETSsBuAlsOwjIexvXRMQOw3KVeXGyhvBosQnbGNSKrzjsffNdnvcbG7vqnrKRH5+6QXHbdnjuxXGpqroAMVO0fH17c/77lA2w/tUKVS1udMl0eShpvt+mBaIbVwr5CH3H+Wq7AGJelZnhUR38ziVEftdtWAF+BJyq1TYberEcfUnKVz5xT5N2ZAWz4jXs5YUngfaaaA/Fn0SRDpie5YwTL/+ZKawm21oifiIbXxWCLjCLPdjPiTtgZ8d12eFSBpKSJa45jsljUF8P9kFSzxFv4KK+LCTbWjJx8fsxfzqThOyr3KFcc5zZe4Z8soTDfKs7h/SdyWJzV77smzA4f75j2IAqTbxlUP/dYmv7JofvJeGrXspPxD0FE15ptM9Z4NQGPBX+WSFZ4krkRjQGr/lSvcM2yI+ZYMi29AR8SnNyVuWFWy8B1oOrB58LBWyCtUDXj0AtlPjtzbaPDy/XbcA8emVs6IKxcoVrwesJYW7t5ubm7e3Nz4q61s5MKu/4W8+HGco7GZFuCJ+CNGqcg7+iHrIG/+/mvj8IiqN8rDd8scDY0emRXwUwRHER40lY4nPaXH6+ev15+vu/lDWUya94c6+AEtqLKp1EfhZVVokWU5LxkqeKRRK9dAbyCgfH87joUjbQqS8kYl63iWFbY4BfrspWItCVCt8FpnS7FSjRncQsAYPsa5n3wnxxdD/gVxP/fAsFLYS3FjqbaFQKP/iAwq1uQv2iZ8nd+3UO3rfqa9krhDe0ifWAy2bDTf4Y2nqQ36W1qPvPAO5GSqFdbpgjwrrxM/jIhSp9qQqHrk9P4YJ4qufSw+E5fvXw0Q9kzKxj9fWRb4gPvsH9Cp6fHw4ifj5Pk8AT4Qvj9Fxu/4l009B/Lpc8xS+2s/Y8cYR0QysUMiPEepPDrRN/DxL/QRx4qtFlDxUr9xx4nutpZ9cBlAo5MeHZRv2JAdOJ37x9Pi2+6jONuHvvqQxpTwnPiSaOTD6FP4RqYBvzaWrfoVIOSmgBeJ/0HWYVI0RG/9O0mJfCB8faRQK4msOcMTPrpYvuOLN0J+l/ZP+TPfxTxwJpaf6wjfGVyl7U7kQPr5GIb+XAvVzKRtxiNaDmoOYfiLeDNW9NOg8nFiM6v/it/LyrvDONz5k7DGN0qL0gPUKiUZhToQH3JheYgt4M1QKoT4uMZ/4L+KVXXG63fKnims2wUyWmSjsjWLQnZ793R3BsEdhMNj46cQXpwd4+PHnnU3uE2Ly7Gf7fZJnlY+vVwi3bBw2WsSAbNvtsQrM3OJySJ/tzY8/n7+uvToHr60wix/5sxEaaPx04u8I/yrDFbMQwX5cMHeiqHx8ZYHiW63iVbmBaVROjCPSK0nVFK+dPJjF9Bgiyb93ENWPcBOsb37BXtE6+/jKEiiH64G1gIRHhNsPHt0wDf01nUf1f8uv6kPvl1/GI0TMu5+H7V1g6RCtO1F97/jUqScpFojq7zdIRM6oc3N3xrTomdFeh8qeGbCRNnnc0sfcakpDum79u11JkRVFbDmqr+7LW32IO9H2Nff3VR9aynvO1t3xgHlhnWoPvFOtYTQRmL3eH8R98HhSRLuTOKMPT7HlqH7a31+ZZenMeZ7MC4/fxUXxYrkfX9svzTlf2Nen22HBAxpZbr8fX3cQEyYuUcRRHElM+cjJ7F5qvR+/R+Lcqcg0WvQSWSDWQeaeXqKDI9izQ+qksdvakv34Ls7RvpLyN4cX7ce3kR4zpvA7+7/MvX+5+r0+fpFn+aJnZpFlefu+4zBzr4j3MSsuXmZSlpzvrn3Hdpe5V+wzHpBhY90vUjL+zMtkTlE43scXzxRC4iIC8734JbPWUXSWq5+ws5MNjZfEsaV5OXtLymaa8HNmNC8MV8RP9/zRPuMK586qalJyti8ePoibP6kr4hfs3MxLhUucppnYV86PoXyauiJ+wW4w7EmUXYdLHEM+g8eeHsOspfDJIvHlGAP7JYtsnxaK+7crhQndKRfYuHt/2iN+BHatfSbZQhchKykDRd4B8Etgj/ghBFHA7kxssP8QlDN4JI8e4HMF1KscGRG8T9kMHnFyiKRVQ20eQ/y6lzwQxq9yBo/zEqcGRls+g0ecRK1V9t7HP/fIc+OV6YuTl/MSp0aAtymbMiQuqhF4DAbXnTOTDhuBJ2cJTw7mzlMagNz7Gc+wcjqu/sQReOwYi4yrLxmLjKuvzGR3O66+pHDECDwXotBoWJs6697dKLtaw/m4+mxDubvc3Wy5klFn1i80k47JqPO2jToZb5GZdLCcELCMQgztKDQiPgxMxtW3a9C/1U4VY+6ZT99jQPwqB14mfqnQEfH5vvpn0kHnpL75xK8nRFmM+PS+3ZyVT0F8ZDh9jwnxO1ljzokvzdrjnvgAKhTWZ2n58hnGlg0gJgWslzglPozCoLWqIv7T5vqaJfmy8Uevq7/NJXaM29P5LLVL/OgMX9WYe8sXB8RXD7erVTiQzjBccj/vi43YJn6kS/HXH8OZEllneV90yzbxw+pdPs0ou9YlZjGPbOslHrqj7A6iX0t8IEDPgN9eRXbaJsySSE9Qpi7VKswB6jQVDQzk20P8kkgKsMLu5OA2JGYsWNgbgT2pHw/UbxR6g8QvMagaAhdsniaqmFV2uqb2DeSrJz6ufhj11+BddGDTpUa02DMOfdv0yJhC/BC2Z8Ltev3yj2fFCCEe2sYy8ev7kjNHXtoXnFePdiBfNQ/rOd4n8GeaQa/7CTPDNwzlw4lGIa6C50NTCNgzIB4RqB+nUEF8DB257b1hBDxhzHwT9E+J6ts2UM3smfWo0N8l/lKBeskIsZ2dQtVreu1x9dkFXxpLxbP5y4q2Kuwysz2uPuzOBejcYBMQDg/mb2Ao33NoER8F4SDoHRiq9+htGdNm0rFowJlD7g+jv8HDaoJ75/STAtt48PW6mWBUzhW0nMJo/qPMUORFQfxwSdCPic8bZhq0KuwSHy1LfCD3F9h6hJDQbxLVd20g6zXL6J/Uj/8VjBr9k/rxL96Q0W/ej/9VDeN+/C9oROP68b+u8T9Q2BPV/x7GJfj4To1LIL5b49sS3yCq/12M/4HC/wCPOmtqYEckqQAAAABJRU5ErkJggg==;" vertex="1" parent="1">
                    <mxGeometry x="256" y="120" width="32" height="32" as="geometry"/>
                </mxCell>
                <mxCell id="15" value="" style="shape=image;verticalLabelPosition=bottom;labelBackgroundColor=default;verticalAlign=top;aspect=fixed;imageAspect=0;image=https://static.thenounproject.com/png/1435843-200.png;" vertex="1" parent="1">
                    <mxGeometry x="402" y="124" width="28" height="28" as="geometry"/>
                </mxCell>
                <mxCell id="17" value="" style="shape=image;verticalLabelPosition=bottom;labelBackgroundColor=default;verticalAlign=top;aspect=fixed;imageAspect=0;image=https://png.pngtree.com/element_our/20190603/ourmid/pngtree-video-black-card-board-illustration-image_1435813.jpg;" vertex="1" parent="1">
                    <mxGeometry x="544.35" y="120" width="31.3" height="32" as="geometry"/>
                </mxCell>
                <mxCell id="20" value="" style="shape=image;verticalLabelPosition=bottom;labelBackgroundColor=default;verticalAlign=top;aspect=fixed;imageAspect=0;image=https://png.pngtree.com/png-vector/20221016/ourmid/pngtree-electronic-upload-file-icon-clipart-hd-png-image_6318312.png;" vertex="1" parent="1">
                    <mxGeometry x="689" y="122" width="30" height="30" as="geometry"/>
                </mxCell>
            </root>
        </mxGraphModel>
    </diagram>
    <diagram id="EcE08DdQRcO3Xfa7C7yU" name="Premium">
        <mxGraphModel dx="2150" dy="721" grid="1" gridSize="4" guides="1" tooltips="1" connect="1" arrows="1" fold="1" page="1" pageScale="1" pageWidth="850" pageHeight="1100" math="0" shadow="0">
            <root>
                <mxCell id="0"/>
                <mxCell id="1" parent="0"/>
                <mxCell id="eYsZwSUkGKawhrmpmL3h-3" value="" style="ellipse;shape=cloud;whiteSpace=wrap;html=1;strokeColor=none;fillColor=#CCCCCC;" vertex="1" parent="1">
                    <mxGeometry x="-32" y="28" width="411" height="316" as="geometry"/>
                </mxCell>
                <mxCell id="eYsZwSUkGKawhrmpmL3h-1" value="" style="ellipse;shape=cloud;whiteSpace=wrap;html=1;strokeColor=none;fillColor=#CCCCCC;" vertex="1" parent="1">
                    <mxGeometry x="404" y="28" width="411" height="316" as="geometry"/>
                </mxCell>
                <mxCell id="fhBHBrMG5NkawLO5S3xv-21" value="" style="rounded=0;whiteSpace=wrap;html=1;fontColor=#808080;strokeColor=#4D4D4D;strokeWidth=1;gradientColor=none;fillColor=none;" vertex="1" parent="1">
                    <mxGeometry x="32" y="350" width="392" height="46" as="geometry"/>
                </mxCell>
                <mxCell id="fhBHBrMG5NkawLO5S3xv-1" value="Customer&lt;div&gt;App&lt;/div&gt;" style="rounded=1;whiteSpace=wrap;html=1;strokeColor=#999999;fontColor=#4D4D4D;fillColor=#999999;" vertex="1" parent="1">
                    <mxGeometry x="47" y="160" width="96" height="96" as="geometry"/>
                </mxCell>
                <mxCell id="fhBHBrMG5NkawLO5S3xv-3" value="SlideVox&lt;div&gt;Lib&lt;/div&gt;" style="rounded=1;whiteSpace=wrap;html=1;strokeColor=#999999;fontColor=#4D4D4D;fillColor=#999999;" vertex="1" parent="1">
                    <mxGeometry x="212" y="160" width="96" height="96" as="geometry"/>
                </mxCell>
                <mxCell id="fhBHBrMG5NkawLO5S3xv-4" value="" style="endArrow=classic;html=1;exitX=1;exitY=0.25;exitDx=0;exitDy=0;entryX=0;entryY=0.25;entryDx=0;entryDy=0;strokeColor=#808080;" edge="1" parent="1" source="fhBHBrMG5NkawLO5S3xv-1" target="fhBHBrMG5NkawLO5S3xv-3">
                    <mxGeometry width="50" height="50" relative="1" as="geometry">
                        <mxPoint x="192" y="230" as="sourcePoint"/>
                        <mxPoint x="242" y="180" as="targetPoint"/>
                    </mxGeometry>
                </mxCell>
                <mxCell id="fhBHBrMG5NkawLO5S3xv-5" value="SlideVox&lt;div&gt;Service&lt;/div&gt;" style="rounded=1;whiteSpace=wrap;html=1;strokeColor=#999999;fontColor=#4D4D4D;fillColor=#999999;" vertex="1" parent="1">
                    <mxGeometry x="499" y="160" width="96" height="96" as="geometry"/>
                </mxCell>
                <mxCell id="fhBHBrMG5NkawLO5S3xv-6" value="License&lt;br&gt;&lt;div&gt;Service&lt;/div&gt;" style="rounded=1;whiteSpace=wrap;html=1;strokeColor=#999999;fontColor=#4D4D4D;fillColor=#999999;" vertex="1" parent="1">
                    <mxGeometry x="643" y="160" width="96" height="96" as="geometry"/>
                </mxCell>
                <mxCell id="fhBHBrMG5NkawLO5S3xv-7" value="" style="endArrow=classic;html=1;exitX=1;exitY=0.75;exitDx=0;exitDy=0;entryX=0;entryY=0.75;entryDx=0;entryDy=0;strokeColor=#990000;dashed=1;" edge="1" parent="1" source="fhBHBrMG5NkawLO5S3xv-1" target="fhBHBrMG5NkawLO5S3xv-3">
                    <mxGeometry width="50" height="50" relative="1" as="geometry">
                        <mxPoint x="196" y="248" as="sourcePoint"/>
                        <mxPoint x="302" y="360" as="targetPoint"/>
                    </mxGeometry>
                </mxCell>
                <mxCell id="fhBHBrMG5NkawLO5S3xv-9" value="" style="endArrow=classic;html=1;exitX=1;exitY=0.5;exitDx=0;exitDy=0;edgeStyle=orthogonalEdgeStyle;strokeColor=#990000;dashed=1;curved=1;entryX=0;entryY=0.5;entryDx=0;entryDy=0;" edge="1" parent="1" source="fhBHBrMG5NkawLO5S3xv-3" target="fhBHBrMG5NkawLO5S3xv-5">
                    <mxGeometry width="50" height="50" relative="1" as="geometry">
                        <mxPoint x="212" y="402" as="sourcePoint"/>
                        <mxPoint x="488" y="260" as="targetPoint"/>
                    </mxGeometry>
                </mxCell>
                <mxCell id="fhBHBrMG5NkawLO5S3xv-12" value="Client Side" style="text;html=1;align=center;verticalAlign=middle;whiteSpace=wrap;rounded=0;fontColor=#4D4D4D;" vertex="1" parent="1">
                    <mxGeometry x="96" y="68" width="96" height="30" as="geometry"/>
                </mxCell>
                <mxCell id="fhBHBrMG5NkawLO5S3xv-14" value="Heroku" style="text;html=1;align=center;verticalAlign=middle;whiteSpace=wrap;rounded=0;fontColor=#4D4D4D;" vertex="1" parent="1">
                    <mxGeometry x="551" y="68" width="60" height="30" as="geometry"/>
                </mxCell>
                <mxCell id="fhBHBrMG5NkawLO5S3xv-15" value="" style="endArrow=classic;startArrow=classic;html=1;exitX=1;exitY=0.5;exitDx=0;exitDy=0;entryX=0;entryY=0.5;entryDx=0;entryDy=0;strokeColor=#990000;dashed=1;edgeStyle=orthogonalEdgeStyle;curved=1;" edge="1" parent="1" source="fhBHBrMG5NkawLO5S3xv-5" target="fhBHBrMG5NkawLO5S3xv-6">
                    <mxGeometry width="50" height="50" relative="1" as="geometry">
                        <mxPoint x="623" y="270" as="sourcePoint"/>
                        <mxPoint x="673" y="220" as="targetPoint"/>
                    </mxGeometry>
                </mxCell>
                <mxCell id="fhBHBrMG5NkawLO5S3xv-17" value="Free flow" style="text;html=1;align=center;verticalAlign=middle;whiteSpace=wrap;rounded=0;fontFamily=Helvetica;" vertex="1" parent="1">
                    <mxGeometry x="83" y="359" width="60" height="30" as="geometry"/>
                </mxCell>
                <mxCell id="fhBHBrMG5NkawLO5S3xv-18" value="Premium flow" style="text;html=1;align=center;verticalAlign=middle;whiteSpace=wrap;rounded=0;fontFamily=Helvetica;fontColor=#990000;" vertex="1" parent="1">
                    <mxGeometry x="256" y="359" width="76" height="30" as="geometry"/>
                </mxCell>
                <mxCell id="fhBHBrMG5NkawLO5S3xv-19" value="" style="endArrow=classic;html=1;strokeColor=#808080;" edge="1" parent="1">
                    <mxGeometry width="50" height="50" relative="1" as="geometry">
                        <mxPoint x="148" y="374" as="sourcePoint"/>
                        <mxPoint x="196" y="374" as="targetPoint"/>
                    </mxGeometry>
                </mxCell>
                <mxCell id="fhBHBrMG5NkawLO5S3xv-20" value="" style="endArrow=classic;html=1;strokeColor=#990000;dashed=1;" edge="1" parent="1">
                    <mxGeometry width="50" height="50" relative="1" as="geometry">
                        <mxPoint x="348" y="373.5" as="sourcePoint"/>
                        <mxPoint x="396" y="373.5" as="targetPoint"/>
                    </mxGeometry>
                </mxCell>
            </root>
        </mxGraphModel>
    </diagram>
    <diagram id="Duy3O_kJD2ZRVYC0lYTD" name="Page-3">
        <mxGraphModel dx="1300" dy="721" grid="1" gridSize="4" guides="1" tooltips="1" connect="1" arrows="1" fold="1" page="1" pageScale="1" pageWidth="850" pageHeight="1100" math="0" shadow="0">
            <root>
                <mxCell id="0"/>
                <mxCell id="1" parent="0"/>
            </root>
        </mxGraphModel>
    </diagram>
</mxfile>